<svg width="64" height="64" viewBox="0 0 64 64" fill="none" xmlns="http://www.w3.org/2000/svg">
<path d="M52.339 28.023C53.299 28.188 54 29.02 54 29.994V34.006C54 34.98 53.299 35.812 52.339 35.977L48.875 36.573C48.48 38.034 47.906 39.419 47.168 40.702L49.194 43.57C49.756 44.365 49.663 45.45 48.975 46.138L46.138 48.975C45.449 49.664 44.365 49.756 43.57 49.194L40.702 47.169C39.419 47.907 38.034 48.48 36.573 48.876L35.977 52.34C35.812 53.299 34.98 54 34.006 54H29.994C29.02 54 28.188 53.299 28.023 52.339L27.427 48.875C25.966 48.48 24.581 47.906 23.298 47.168L20.43 49.193C19.635 49.755 18.55 49.662 17.862 48.974L15.025 46.137C14.337 45.448 14.244 44.364 14.806 43.569L16.832 40.701C16.094 39.418 15.52 38.033 15.125 36.572L11.661 35.976C10.701 35.812 10 34.98 10 34.006V29.994C10 29.02 10.701 28.188 11.661 28.023L15.125 27.427C15.52 25.966 16.094 24.581 16.832 23.298L14.806 20.43C14.244 19.635 14.337 18.55 15.025 17.862L17.862 15.025C18.551 14.337 19.635 14.244 20.43 14.806L23.298 16.832C24.581 16.094 25.966 15.521 27.427 15.125L28.023 11.661C28.188 10.701 29.02 10 29.994 10H34.006C34.98 10 35.812 10.701 35.977 11.661L36.573 15.125C38.034 15.52 39.419 16.094 40.702 16.832L43.57 14.806C44.365 14.244 45.45 14.337 46.138 15.025L48.975 17.862C49.663 18.55 49.756 19.635 49.194 20.43L47.168 23.298C47.906 24.581 48.48 25.966 48.875 27.427L52.339 28.023ZM32 40C36.418 40 40 36.418 40 32C40 27.582 36.418 24 32 24C27.582 24 24 27.582 24 32C24 36.418 27.582 40 32 40Z" fill="#2A1A8F"/>
</svg>
